<svg id="Icon_Globe" data-name="Icon / Globe" xmlns="http://www.w3.org/2000/svg" xmlns:xlink="http://www.w3.org/1999/xlink" width="32" height="32" viewBox="0 0 32 32">
  <defs>
    <clipPath id="clip-path">
      <circle id="Ellipse_97" data-name="Ellipse 97" cx="16" cy="16" r="16" transform="translate(881 126)" fill="none" stroke="#039" stroke-width="1"/>
    </clipPath>
  </defs>
  <g id="Ellipse_94" data-name="Ellipse 94" fill="none" stroke="#039" stroke-width="1">
    <circle cx="16" cy="16" r="16" stroke="none"/>
    <circle cx="16" cy="16" r="15.5" fill="none"/>
  </g>
  <g id="Mask_Group_56" data-name="Mask Group 56" transform="translate(-881 -126)" clip-path="url(#clip-path)">
    <path id="Path_180" data-name="Path 180" d="M-20886.025-14657h30.416" transform="translate(21767.816 14799)" fill="none" stroke="#039" stroke-width="1"/>
    <g id="Ellipse_98" data-name="Ellipse 98" transform="translate(881 125)" fill="none" stroke="#039" stroke-width="1">
      <ellipse cx="16" cy="5.5" rx="16" ry="5.5" stroke="none"/>
      <ellipse cx="16" cy="5.5" rx="15.5" ry="5" fill="none"/>
    </g>
    <g id="Ellipse_99" data-name="Ellipse 99" transform="translate(881 148)" fill="none" stroke="#039" stroke-width="1">
      <ellipse cx="16" cy="5.5" rx="16" ry="5.5" stroke="none"/>
      <ellipse cx="16" cy="5.5" rx="15.5" ry="5" fill="none"/>
    </g>
    <path id="Path_181" data-name="Path 181" d="M-20886.025-14657h30.416" transform="translate(-13760.001 21012.816) rotate(90)" fill="none" stroke="#039" stroke-width="1"/>
    <g id="Ellipse_100" data-name="Ellipse 100" transform="translate(906.475 125) rotate(90)" fill="none" stroke="#039" stroke-width="1">
      <ellipse cx="17.104" cy="14.994" rx="17.104" ry="14.994" stroke="none"/>
      <ellipse cx="17.104" cy="14.994" rx="16.604" ry="14.494" fill="none"/>
    </g>
    <g id="Ellipse_101" data-name="Ellipse 101" transform="translate(917.475 125) rotate(90)" fill="none" stroke="#039" stroke-width="1">
      <ellipse cx="17.104" cy="14.994" rx="17.104" ry="14.994" stroke="none"/>
      <ellipse cx="17.104" cy="14.994" rx="16.604" ry="14.494" fill="none"/>
    </g>
  </g>
</svg>
