<svg id="Baxter_logo_blue" data-name="Baxter logo blue" xmlns="http://www.w3.org/2000/svg" width="259.998" height="44.816" viewBox="0 0 259.998 44.816">
  <path id="Path_35" data-name="Path 35" d="M110.8,47.731a3.048,3.048,0,0,0,2.74-2.335l1.979-7.595s-8.739,0-8.739,0a3.488,3.488,0,0,0-3.136,2.672l-1,3.813c-.5,1.9.581,3.433,2.4,3.433ZM95.941,26.572c-2.956,0-3.541.658-3.541.658l2.408-5.754,30.33-.007c5.7,0,9.172,4.365,7.762,9.748l-4.833,18.375a4.754,4.754,0,0,0,.232,3.744H113.556l-.988-3.12a4.8,4.8,0,0,1-4.38,3.115l-13.011.011c-5.7,0-9.172-4.364-7.762-9.748l1.651-6.276a7.789,7.789,0,0,1,7.2-5.456l18.777.02a2.7,2.7,0,0,0,2.429-2.069l.149-.575a1.949,1.949,0,0,0-1.862-2.658Z" transform="translate(-34.636 -8.536)" fill="#00307f"/>
  <path id="Path_36" data-name="Path 36" d="M366.108,53.337a12.318,12.318,0,0,0,2.186-4.3l6.116-23.259a8.427,8.427,0,0,0,.064-4.3h13.856l.5,3.519c.449-1.721,3.046-3.514,4.866-3.514l11.887,0-2.37,9.048s-.441-1.04-3.4-1.04l-8.63-.011a3.047,3.047,0,0,0-2.739,2.334l-4.513,17.23a8.4,8.4,0,0,0-.065,4.3Z" transform="translate(-145.588 -8.541)" fill="#00307f"/>
  <path id="Path_37" data-name="Path 37" d="M258.226,39.453a2.332,2.332,0,0,0,2.226,3.18l8.615.008c2.955,0,3.541-.658,3.541-.658l-1.644,6.275-19.923.007c-5.7,0-9.172-4.364-7.762-9.749L250.8,9.881,266.271,8.7l-2.017,7.7h13.108l-1.335,5.1H262.918Z" transform="translate(-96.618 -3.46)" fill="#00307f"/>
  <path id="Path_38" data-name="Path 38" d="M23.231,25.418s-3.225,12.308-3.225,12.31,10.039,0,10.039,0a3.492,3.492,0,0,0,3.137-2.672L34.8,28.85c.5-1.895-.579-3.432-2.4-3.432ZM27.942,7.426l-2.87,10.957s10.039,0,10.039,0a3.489,3.489,0,0,0,3.136-2.671l1.268-4.854c.5-1.9-.578-3.432-2.4-3.432ZM47.329,0c5.7,0,9.173,4.364,7.763,9.748l-1.911,7.211c-.742,2.877-3.374,4.264-6.279,5.09A7.3,7.3,0,0,1,50.5,30.861L48.1,39.909a6.958,6.958,0,0,1-6.435,4.875L0,44.8a30.831,30.831,0,0,0,2.526-5.062L11.76,4.478A14.938,14.938,0,0,0,11.731.006Z" fill="#00307f"/>
  <path id="Path_39" data-name="Path 39" d="M187.437,21.491a5.621,5.621,0,0,0,1.216,3.663l3.139,5.6,8.043-5.867a7.874,7.874,0,0,0,2.808-3.413l11.59.018-19.6,14.339L203.356,51.3a4.806,4.806,0,0,0,1.834,2.015l-18.909.034s.2-1.335-1.214-3.663l-2.737-4.836-11.6,8.481-9.8.016,18.543-13.567L170.3,23.508a4.927,4.927,0,0,0-1.834-2.017Z" transform="translate(-63.998 -8.538)" fill="#00307f"/>
  <path id="Path_40" data-name="Path 40" d="M326.2,33.811s1.009-3.848,1-3.813c.5-1.9-.579-3.433-2.4-3.433l-5.749-.011a3.05,3.05,0,0,0-2.741,2.335l-1.279,4.922Zm-12.644,5.617-1.269,4.854c-.5,1.895.579,3.431,2.4,3.431h19.322c2.954,0,3.54-.659,3.54-.659l-2.643,6.275-30.329.007c-5.7,0-9.174-4.365-7.764-9.749l4.4-16.675a7.788,7.788,0,0,1,7.2-5.457l26.122.007c5.7,0,9.173,4.364,7.763,9.748l-2.158,8.217Z" transform="translate(-117.908 -8.532)" fill="#00307f"/>
  <rect id="Rectangle_21" data-name="Rectangle 21" width="259.998" height="44.816" fill="none"/>
</svg>
