<svg id="Baxter_logo_blue" data-name="Baxter logo blue" xmlns="http://www.w3.org/2000/svg" width="139.998" height="24.131" viewBox="0 0 139.998 24.131">
  <path id="Path_35" data-name="Path 35" d="M99.865,35.609a1.641,1.641,0,0,0,1.475-1.257l1.065-4.09s-4.705,0-4.705,0A1.878,1.878,0,0,0,96.012,31.7l-.537,2.053A1.356,1.356,0,0,0,96.768,35.6Zm-8-11.393c-1.591,0-1.907.354-1.907.354l1.3-3.1,16.331,0c3.068,0,4.939,2.35,4.179,5.249l-2.6,9.894a2.56,2.56,0,0,0,.125,2.016h-7.938l-.532-1.68a2.582,2.582,0,0,1-2.358,1.677l-7.006.006c-3.067,0-4.939-2.35-4.18-5.249L88.159,30a4.194,4.194,0,0,1,3.878-2.938l10.11.011a1.454,1.454,0,0,0,1.308-1.114l.08-.309a1.05,1.05,0,0,0-1-1.431Z" transform="translate(-58.851 -14.505)" fill="#fff"/>
  <path id="Path_36" data-name="Path 36" d="M366.108,38.633a6.633,6.633,0,0,0,1.177-2.315l3.293-12.524a4.537,4.537,0,0,0,.034-2.315h7.461l.271,1.895a3.163,3.163,0,0,1,2.62-1.892l6.4,0-1.276,4.872s-.237-.56-1.829-.56l-4.647-.006a1.641,1.641,0,0,0-1.475,1.257l-2.43,9.278a4.525,4.525,0,0,0-.035,2.315Z" transform="translate(-247.367 -14.512)" fill="#fff"/>
  <path id="Path_37" data-name="Path 37" d="M251.182,25.26a1.256,1.256,0,0,0,1.2,1.712l4.639,0c1.591,0,1.906-.354,1.906-.354L258.041,30l-10.728,0c-3.068,0-4.939-2.35-4.18-5.249l4.049-15.419,8.331-.635-1.086,4.144h7.058l-.719,2.744h-7.059Z" transform="translate(-164.163 -5.88)" fill="#fff"/>
  <path id="Path_38" data-name="Path 38" d="M12.509,13.687s-1.736,6.627-1.736,6.628,5.405,0,5.405,0a1.88,1.88,0,0,0,1.689-1.439l.874-3.342a1.355,1.355,0,0,0-1.294-1.848ZM15.046,4,13.5,9.9s5.405,0,5.405,0A1.879,1.879,0,0,0,20.595,8.46l.683-2.614A1.354,1.354,0,0,0,19.984,4ZM25.485,0c3.068,0,4.939,2.35,4.18,5.249L28.636,9.132c-.4,1.549-1.817,2.3-3.381,2.741a3.93,3.93,0,0,1,1.935,4.745L25.9,21.489a3.746,3.746,0,0,1-3.465,2.625L0,24.122A16.6,16.6,0,0,0,1.36,21.4L6.332,2.411A8.043,8.043,0,0,0,6.317,0Z" fill="#fff"/>
  <path id="Path_39" data-name="Path 39" d="M175.205,21.481a3.027,3.027,0,0,0,.654,1.972l1.69,3.013,4.331-3.159a4.24,4.24,0,0,0,1.512-1.838l6.241.01L179.079,29.2l4.7,8.333a2.588,2.588,0,0,0,.987,1.085l-10.182.018a3.305,3.305,0,0,0-.654-1.972l-1.474-2.6-6.245,4.567-5.275.008,9.985-7.305-4.944-8.764a2.653,2.653,0,0,0-.987-1.086Z" transform="translate(-108.738 -14.507)" fill="#fff"/>
  <path id="Path_40" data-name="Path 40" d="M312.5,28.109l.538-2.053a1.355,1.355,0,0,0-1.294-1.848l-3.1-.006a1.642,1.642,0,0,0-1.476,1.257l-.689,2.65Zm-6.808,3.024L305,33.747a1.355,1.355,0,0,0,1.294,1.847h10.4c1.591,0,1.906-.355,1.906-.355l-1.423,3.379-16.331,0c-3.068,0-4.94-2.35-4.18-5.25l2.367-8.979a4.194,4.194,0,0,1,3.878-2.938l14.066,0c3.068,0,4.939,2.35,4.18,5.249L320,31.133Z" transform="translate(-200.338 -14.497)" fill="#fff"/>
  <rect id="Rectangle_21" data-name="Rectangle 21" width="139.998" height="24.131" fill="none"/>
</svg>
